<?xml version="1.0" encoding="UTF-8"?>
<svg xmlns="http://www.w3.org/2000/svg" xmlns:xlink="http://www.w3.org/1999/xlink" width="24pt" height="24pt" viewBox="0 0 24 24" version="1.1">
<g id="surface4021827">
<path style=" stroke:none;fill-rule:nonzero;fill:rgb(99.607843%,42.352941%,9.803922%);fill-opacity:1;" d="M 21.601562 8 C 21.601562 8.101562 21.601562 8.101562 21.5 8.199219 C 21.398438 8.300781 21.101562 8.601562 20.898438 8.601562 C 20.699219 8.601562 20.199219 8.601562 19.800781 8.699219 C 19.300781 8.800781 18.101562 9 17.300781 9.300781 C 16.601562 9.601562 16.199219 9.699219 15.800781 9.398438 C 15.300781 9.101562 13.398438 7.199219 13.398438 7.199219 C 13.398438 7.199219 12.398438 7.699219 11.800781 8.300781 C 11 8.898438 10 9.699219 9.199219 10.699219 C 8.300781 11.699219 7.5 12.800781 7 13.898438 C 8.101562 15 9 15.898438 9.199219 16.199219 C 9.398438 16.5 9.5 16.5 9.300781 17 C 9.101562 17.5 8.800781 18.199219 8.699219 19 C 8.601562 19.699219 8.5 20.5 8.398438 21 C 8.300781 21.5 8.300781 21.5 8.101562 21.601562 C 7.898438 21.800781 7.601562 22 7.5 22 C 7.398438 22 7.101562 22 6.101562 22 C 5.101562 22 3.699219 22 3.398438 22 C 3.101562 22 3.101562 22 2.898438 21.898438 C 2.699219 21.800781 2.199219 21.699219 2.199219 21.699219 C 2.101562 21.699219 1.898438 21.199219 1.898438 20.898438 C 1.898438 20.601562 1.898438 19.5 2 18.800781 C 2.101562 18.101562 2.5 16.199219 2.800781 15.5 C 3 14.800781 3.800781 12.5 5.898438 9.699219 C 8 7 10.699219 5.101562 12.898438 4 C 15.101562 2.898438 17.5 2.398438 18.699219 2.199219 C 19.898438 2 20.398438 2 20.699219 2 C 21 2.101562 21.300781 2.398438 21.398438 2.601562 C 21.5 2.800781 21.601562 3.101562 21.601562 3.398438 C 21.601562 3.699219 21.601562 4.5 21.601562 5.601562 C 21.601562 6.699219 21.601562 8 21.601562 8 Z M 21.601562 8 "/>
</g>
</svg>
