<svg id="Layer_1" data-name="Layer 1" xmlns="http://www.w3.org/2000/svg" viewBox="0 0 228.41 77.83"><defs><style>.cls-1,.cls-3{fill:#fe6c19;}.cls-2,.cls-7{fill:#1754f8;}.cls-3{font-size:40px;font-family:ProductSans-Bold, Product Sans;font-weight:700;}.cls-4{letter-spacing:0em;}.cls-5,.cls-7{letter-spacing:-0.01em;}.cls-6{letter-spacing:0em;}</style></defs><title>KlexHub</title><polygon class="cls-1" points="21.29 48.63 13 77.83 75.5 29.92 21.58 63.33 21.29 48.63"/><polygon class="cls-2" points="40.28 60.03 44.25 57.08 57 66.67 51.8 51.24 55.54 48.33 64.92 77.83 40.28 60.03"/><polyline class="cls-2" points="37.81 0 28.75 27.75 0 27.75 23.94 45.56 23.94 54 24.13 53.5 27.69 43.81 11.44 31.44 31.25 31.44 37.81 12.69 44.25 31.44 67.5 31.44 73.44 27.75 47.06 27.75 37.81 0"/><text class="cls-3" transform="translate(74.57 62.35)">K<tspan class="cls-4" x="26.76" y="0">l</tspan><tspan class="cls-5" x="36.28" y="0">e</tspan><tspan class="cls-6" x="58.12" y="0">x</tspan><tspan class="cls-7" x="78.68" y="0">H</tspan><tspan class="cls-2" x="106.88" y="0">ub</tspan></text></svg>